{"title":"Just Wright CAM XViD FEEL-FREE","uid":5604883,"size":1188089156,"categoryP":"video","categoryS":"movies","magnet":"?xt=urn:btih:b53087def196a902fbca0b3491abde64eb9ac504&amp;dn=Just+Wright+CAM+XViD+FEEL-FREE&amp;tr=udp%3A%2F%2Ftracker.openbittorrent.com%3A80&amp;tr=udp%3A%2F%2Fopen.demonii.com%3A1337&amp;tr=udp%3A%2F%2Ftracker.coppersurfer.tk%3A6969&amp;tr=udp%3A%2F%2Fexodus.desync.com%3A6969","seeders":1,"leechers":0,"uploader":"xenl","files":8,"time":1275534403,"description":"+------------------------------+\n|Just Wright CAM XViD FEEL-FREE|\n+------------------------------+\n\nGenre:Comedy | Romance\nSource:Just Wright 2010 DVDR[Just Wright 2010 Cam rip] Thanks\nIMDB:http://www.imdb.com/title/tt1407061/\nLanguage:English\nEncoder: Tony2\n...........................................\nGeneral\nComplete name : Just Wright CAM XViD FEEL-FREE\nFormat : AVI\nFormat/Info : Audio Video Interleave\nFile size : 1.10 GiB\nDuration : 1h 36mn\nOverall bit rate : 1 642 Kbps\n..........................................\nVideo\nID : 0\nFormat : MPEG-4 Visual\nFormat profile : Simple@L3\nFormat settings, BVOP : Yes\nFormat settings, QPel : No\nFormat settings, GMC : No warppoints\nFormat settings, Matrix : Default (H.263)\nCodec ID : XVID\nCodec ID/Hint : XviD\nDuration : 1h 36mn\nBit rate : 1 500 Kbps\nWidth : 854 pixels\nHeight : 480 pixels\nDisplay aspect ratio : 16:9\nFrame rate : 29.970 fps\nResolution : 24 bits\nScan type : Progressive\nBits/(Pixel*Frame) : 0.122\nStream size : 1.01 GiB (91%)\n...........................................\nAudio\nID : 1\nFormat : MPEG Audio\nFormat version : Version 1\nFormat profile : Layer 3\nFormat settings, Mode : Joint stereo / MS Stereo\nCodec ID : 55\nCodec ID/Hint : MP3\nDuration : 1h 36mn\nBit rate mode : Constant\nBit rate : 128 Kbps\nChannel(s) : 2 channels\nSampling rate : 44.1 KHz\nResolution : 16 bits\nStream size : 88.2 MiB (8%)\nAlignment : Aligned on interleaves\nInterleave, duration : 26 ms (0.78 video frame)\nInterleave, preload duration : 26 ms\nWriting library : LAME3.97\n..........................................\nPlot:\nA physical therapist falls for the basketball player she is helping recover from a career-threatening injury.\n..........................................","torrent":{"xt":"urn:btih:b53087def196a902fbca0b3491abde64eb9ac504","amp;dn":"Just+Wright+CAM+XViD+FEEL-FREE","amp;tr":["udp%3A%2F%2Ftracker.openbittorrent.com%3A80","udp%3A%2F%2Fopen.demonii.com%3A1337","udp%3A%2F%2Ftracker.coppersurfer.tk%3A6969","udp%3A%2F%2Fexodus.desync.com%3A6969"],"infoHash":"b53087def196a902fbca0b3491abde64eb9ac504","infoHashBuffer":{"type":"Buffer","data":[181,48,135,222,241,150,169,2,251,202,11,52,145,171,222,100,235,154,197,4]},"announce":[],"urlList":[]}}